<svg xmlns="http://www.w3.org/2000/svg" xmlns:xlink="http://www.w3.org/1999/xlink" preserveAspectRatio="xMidYMid" width="11" height="8" viewBox="0 0 11 8">
  <defs>
    <style>
      .cls-1 {
        fill: #db0a3b;
        fill-rule: evenodd;
      }
    </style>
  </defs>
  <path d="M10.000,5.000 L3.414,5.000 L4.707,6.293 C4.902,6.488 5.000,6.744 5.000,7.000 C5.000,7.256 4.902,7.512 4.707,7.707 C4.316,8.098 3.684,8.098 3.293,7.707 L0.293,4.707 C0.201,4.615 0.128,4.504 0.077,4.382 C-0.024,4.138 -0.024,3.862 0.077,3.618 C0.128,3.495 0.201,3.385 0.293,3.293 L3.293,0.293 C3.684,-0.098 4.316,-0.098 4.707,0.293 C5.098,0.684 5.098,1.316 4.707,1.707 L3.414,3.000 L10.000,3.000 C10.552,3.000 11.000,3.448 11.000,4.000 C11.000,4.552 10.552,5.000 10.000,5.000 Z" class="cls-1"/>
</svg>
