<svg xmlns="http://www.w3.org/2000/svg" width="36" height="32" viewBox="0 0 36 32">
  <defs>
    <style>
      .cls-1 {
        fill: #eb8003;
        fill-rule: evenodd;
      }
    </style>
  </defs>
  <path id="Basket" class="cls-1" d="M714,44h-5.1a1.508,1.508,0,0,0-.132-0.294l-5-8a1.5,1.5,0,0,0-2.546,1.588L705.418,44H692.582l4.191-6.706a1.5,1.5,0,0,0-2.546-1.588l-5,8A1.508,1.508,0,0,0,689.1,44H684a3,3,0,0,0-3,3v2a3,3,0,0,0,2.317,2.914l3.8,12.934A3,3,0,0,0,690,67h18a3,3,0,0,0,2.879-2.151l3.8-12.934A3,3,0,0,0,717,49V47A3,3,0,0,0,714,44Zm-30,3h30v2H684V47Zm24,17-18,0L686.47,52h25.06Z" transform="translate(-681 -35)"/>
</svg>
