<svg xmlns="http://www.w3.org/2000/svg" xmlns:xlink="http://www.w3.org/1999/xlink" preserveAspectRatio="xMidYMid" width="20" height="17" viewBox="0 0 20 17">
  <defs>
    <style>
      .cls-1 {
        fill: #fff;
        fill-rule: evenodd;
      }
    </style>
  </defs>
  <path d="M19.707,10.707 C19.512,10.902 19.256,11.000 19.000,11.000 C18.744,11.000 18.488,10.902 18.293,10.707 L17.000,9.414 L17.000,16.000 C17.000,16.552 16.553,16.999 16.000,16.999 L4.000,16.999 C3.448,16.999 3.000,16.552 3.000,16.000 L3.000,9.414 L1.707,10.707 C1.512,10.902 1.256,11.000 1.000,11.000 C0.744,11.000 0.488,10.902 0.293,10.707 C-0.098,10.316 -0.098,9.683 0.293,9.293 L9.293,0.293 C9.684,-0.098 10.316,-0.098 10.707,0.293 L19.707,9.293 C20.098,9.683 20.098,10.316 19.707,10.707 ZM9.000,15.000 L11.000,15.000 L11.000,12.000 L9.000,12.000 L9.000,15.000 ZM5.000,7.999 L5.000,15.000 L7.000,15.000 L7.000,11.000 C7.000,10.447 7.448,9.999 8.000,9.999 L12.000,9.999 C12.553,9.999 13.000,10.447 13.000,11.000 L13.000,15.000 L15.000,15.000 L15.000,7.999 C15.000,7.831 15.052,7.679 15.126,7.540 L10.000,2.413 L4.874,7.540 C4.948,7.679 5.000,7.831 5.000,7.999 Z" class="cls-1"/>
</svg>
