<svg xmlns="http://www.w3.org/2000/svg" xmlns:xlink="http://www.w3.org/1999/xlink" preserveAspectRatio="xMidYMid" width="15.062" height="22" viewBox="0 0 15.062 22">
  <defs>
    <style>
      .cls-1 {
        fill: #eb8003;
        fill-rule: evenodd;
      }
    </style>
  </defs>
  <path d="M8.365,21.550 C8.180,21.831 7.867,21.999 7.531,21.999 C7.195,21.999 6.881,21.831 6.696,21.550 C6.012,20.514 0.009,11.315 0.009,7.521 C0.009,3.373 3.383,-0.001 7.531,-0.001 C11.678,-0.001 15.053,3.373 15.053,7.521 C15.053,11.315 9.050,20.514 8.365,21.550 ZM7.531,1.999 C4.486,1.999 2.009,4.476 2.009,7.521 C2.009,9.869 5.461,15.856 7.531,19.149 C9.600,15.856 13.053,9.869 13.053,7.521 C13.053,4.476 10.576,1.999 7.531,1.999 ZM3.922,7.521 C3.922,5.531 5.541,3.912 7.531,3.912 C9.521,3.912 11.140,5.531 11.140,7.521 C11.140,9.510 9.521,11.129 7.531,11.129 C5.541,11.129 3.922,9.510 3.922,7.521 ZM9.140,7.521 C9.140,6.634 8.418,5.912 7.531,5.912 C6.644,5.912 5.922,6.634 5.922,7.521 C5.922,8.408 6.644,9.129 7.531,9.129 C8.418,9.129 9.140,8.408 9.140,7.521 Z" class="cls-1"/>
</svg>
