<svg xmlns="http://www.w3.org/2000/svg" xmlns:xlink="http://www.w3.org/1999/xlink" preserveAspectRatio="xMidYMid" width="31" height="19" viewBox="0 0 31 19">
  <defs>
    <style>
      .cls-1 {
        fill: #ff9b00;
        fill-rule: evenodd;
      }
    </style>
  </defs>
  <path d="M21.500,18.999 C19.224,18.999 17.138,18.195 15.502,16.860 C16.022,16.436 16.494,15.955 16.914,15.431 C18.182,16.413 19.772,16.999 21.500,16.999 C25.642,16.999 29.000,13.641 29.000,9.499 C29.000,5.357 25.642,1.999 21.500,1.999 C19.772,1.999 18.181,2.584 16.913,3.566 C16.834,3.468 16.745,3.379 16.662,3.284 C16.863,3.515 17.059,3.750 17.237,3.999 L14.207,3.999 C13.931,3.999 13.707,4.223 13.707,4.499 C13.707,4.775 13.931,4.999 14.207,4.999 L17.867,4.999 C18.041,5.321 18.194,5.656 18.331,5.999 L13.169,5.999 C12.893,5.999 12.669,6.223 12.669,6.499 C12.669,6.775 12.893,6.999 13.169,6.999 L18.500,6.999 C18.553,6.999 18.601,6.984 18.649,6.969 C18.742,7.305 18.807,7.651 18.864,7.999 L12.908,7.999 C12.631,7.999 12.407,8.223 12.407,8.499 C12.407,8.775 12.631,8.999 12.908,8.999 L18.964,8.999 C18.974,9.166 19.000,9.329 19.000,9.499 C19.000,9.668 18.983,9.832 18.975,9.999 L12.908,9.999 C12.631,9.999 12.407,10.223 12.407,10.499 C12.407,10.775 12.631,10.999 12.908,10.999 L18.870,10.999 C18.814,11.350 18.733,11.691 18.641,12.027 C18.595,12.014 18.550,11.999 18.500,11.999 L13.132,11.999 C12.856,11.999 12.632,12.223 12.632,12.499 C12.632,12.775 12.856,12.999 13.132,12.999 L18.313,12.999 C18.175,13.346 18.003,13.674 17.827,13.999 L14.207,13.999 C13.931,13.999 13.707,14.223 13.707,14.499 C13.707,14.775 13.931,14.999 14.207,14.999 L17.197,14.999 C15.480,17.411 12.688,18.999 9.500,18.999 C4.253,18.999 0.000,14.746 0.000,9.499 C0.000,4.252 4.253,-0.001 9.500,-0.001 C11.861,-0.001 14.014,0.867 15.674,2.294 C15.615,2.244 15.563,2.188 15.504,2.139 C17.139,0.804 19.224,-0.001 21.500,-0.001 C26.747,-0.001 31.000,4.252 31.000,9.499 C31.000,14.746 26.747,18.999 21.500,18.999 ZM15.887,2.488 C16.077,2.662 16.261,2.842 16.437,3.031 C16.261,2.842 16.077,2.662 15.887,2.488 Z" class="cls-1"/>
</svg>
