<svg xmlns="http://www.w3.org/2000/svg" xmlns:xlink="http://www.w3.org/1999/xlink" preserveAspectRatio="xMidYMid" width="18.12" height="14.68" viewBox="0 0 18.12 14.68">
  <defs>
    <style>
      .cls-1 {
        fill: #00aced;
        fill-rule: evenodd;
      }
    </style>
  </defs>
  <path d="M16.248,3.654 C16.258,3.815 16.258,3.975 16.258,4.137 C16.258,9.038 12.527,14.687 5.707,14.687 C3.607,14.687 1.653,14.080 0.012,13.023 C0.311,13.056 0.598,13.070 0.908,13.070 C2.642,13.070 4.237,12.484 5.513,11.485 C3.881,11.450 2.515,10.383 2.045,8.912 C2.275,8.948 2.505,8.971 2.745,8.971 C3.078,8.971 3.411,8.925 3.721,8.844 C2.022,8.500 0.747,7.006 0.747,5.204 C0.747,5.193 0.747,5.170 0.747,5.157 C1.241,5.434 1.816,5.606 2.424,5.629 C1.425,4.963 0.771,3.826 0.771,2.540 C0.771,1.851 0.954,1.220 1.276,0.670 C3.102,2.919 5.845,4.390 8.922,4.550 C8.866,4.273 8.830,3.988 8.830,3.700 C8.830,1.658 10.483,-0.008 12.539,-0.008 C13.606,-0.008 14.571,0.440 15.249,1.164 C16.086,1.001 16.890,0.691 17.603,0.267 C17.326,1.129 16.741,1.851 15.972,2.310 C16.718,2.230 17.442,2.024 18.108,1.737 C17.603,2.471 16.970,3.126 16.248,3.654 Z" class="cls-1"/>
</svg>
