<svg xmlns="http://www.w3.org/2000/svg" xmlns:xlink="http://www.w3.org/1999/xlink" preserveAspectRatio="xMidYMid" width="19.906" height="14" viewBox="0 0 19.906 14">
  <defs>
    <style>
      .cls-1 {
        fill: #c33;
        fill-rule: evenodd;
      }
    </style>
  </defs>
  <path d="M19.541,11.713 C19.308,12.801 18.442,13.600 17.399,13.723 C14.933,13.999 12.434,13.999 9.947,13.999 C7.460,13.999 4.961,13.999 2.496,13.723 C1.452,13.600 0.586,12.801 0.342,11.713 C-0.002,10.168 -0.002,8.694 -0.002,7.107 C-0.002,5.518 -0.002,3.830 0.352,2.287 C0.597,1.199 1.452,0.399 2.496,0.277 C4.961,-0.001 7.460,-0.001 9.947,-0.001 C12.434,-0.001 14.933,-0.001 17.399,0.277 C18.442,0.399 19.308,1.199 19.552,2.287 C19.897,3.830 19.897,5.518 19.897,7.107 C19.897,8.694 19.897,10.168 19.541,11.713 ZM13.878,6.507 L8.086,2.952 C7.863,2.808 7.584,2.808 7.363,2.930 C7.141,3.053 6.998,3.297 6.998,3.553 L6.998,10.660 C6.998,10.916 7.141,11.159 7.363,11.282 C7.475,11.337 7.584,11.371 7.707,11.371 C7.840,11.371 7.974,11.337 8.086,11.260 L13.878,7.706 C14.090,7.583 14.211,7.350 14.211,7.107 C14.211,6.862 14.090,6.628 13.878,6.507 Z" class="cls-1"/>
</svg>
