<svg xmlns="http://www.w3.org/2000/svg" xmlns:xlink="http://www.w3.org/1999/xlink" preserveAspectRatio="xMidYMid" width="18" height="18" viewBox="0 0 18 18">
  <defs>
    <style>
      .cls-1 {
        fill: #369;
        fill-rule: evenodd;
      }
    </style>
  </defs>
  <path d="M18.000,15.689 C18.000,16.956 16.957,17.999 15.690,17.999 L2.309,17.999 C1.043,17.999 -0.000,16.956 -0.000,15.689 L-0.000,2.308 C-0.000,1.042 1.043,-0.001 2.309,-0.001 L15.690,-0.001 C16.957,-0.001 18.000,1.042 18.000,2.308 L18.000,15.689 ZM16.000,7.999 L14.378,7.999 C14.530,8.479 14.613,8.624 14.613,9.150 C14.613,12.151 12.105,14.578 9.011,14.578 C5.930,14.578 3.422,12.151 3.422,9.150 C3.422,8.624 3.505,8.479 3.656,7.999 L2.000,7.999 L2.000,15.284 C2.000,15.683 2.316,15.999 2.713,15.999 L15.285,15.999 C15.684,15.999 16.000,15.683 16.000,15.284 L16.000,7.999 ZM9.011,5.460 C7.019,5.460 5.402,7.030 5.402,8.964 C5.402,10.897 7.019,12.468 9.011,12.468 C11.015,12.468 12.632,10.897 12.632,8.964 C12.632,7.030 11.015,5.460 9.011,5.460 ZM15.961,2.812 C15.961,2.366 15.598,2.003 15.152,2.003 L13.113,2.003 C12.668,2.003 12.304,2.366 12.304,2.812 L12.304,4.745 C12.304,5.191 12.668,5.554 13.113,5.554 L15.152,5.554 C15.598,5.554 15.961,5.191 15.961,4.745 L15.961,2.812 Z" class="cls-1"/>
</svg>
