<svg xmlns="http://www.w3.org/2000/svg" xmlns:xlink="http://www.w3.org/1999/xlink" preserveAspectRatio="xMidYMid" width="21.94" height="12.5" viewBox="0 0 21.94 12.5">
  <defs>
    <style>
      .cls-1 {
        fill: #5f7d9d;
        fill-rule: evenodd;
      }
    </style>
  </defs>
  <path d="M20.198,4.260 C17.982,7.209 17.742,6.934 19.571,8.637 C21.331,10.271 21.695,11.059 21.753,11.161 C21.753,11.161 22.484,12.442 20.942,12.453 L18.017,12.499 C17.389,12.624 16.553,12.053 16.553,12.053 C15.457,11.299 14.428,9.345 13.628,9.597 C13.628,9.597 12.804,9.860 12.829,11.618 C12.840,11.996 12.657,12.202 12.657,12.202 C12.657,12.202 12.452,12.420 12.053,12.453 L10.737,12.453 C7.846,12.636 5.298,9.974 5.298,9.974 C5.298,9.974 2.508,7.095 0.064,1.346 C-0.095,0.968 0.076,0.786 0.076,0.786 C0.076,0.786 0.248,0.569 0.726,0.569 L3.858,0.547 C4.155,0.592 4.362,0.752 4.362,0.752 C4.362,0.752 4.543,0.877 4.636,1.116 C5.149,2.397 5.812,3.562 5.812,3.562 C6.955,5.917 7.732,6.318 8.177,6.077 C8.177,6.077 8.760,5.723 8.636,2.876 C8.589,1.849 8.303,1.380 8.303,1.380 C8.041,1.026 7.550,0.924 7.332,0.889 C7.160,0.865 7.446,0.454 7.822,0.271 C8.385,-0.002 9.378,-0.013 10.555,-0.002 C11.479,0.008 11.743,0.067 12.097,0.146 C13.183,0.408 12.818,1.413 12.818,3.838 C12.818,4.613 12.668,5.700 13.229,6.056 C13.468,6.213 14.063,6.077 15.525,3.585 C15.525,3.585 16.210,2.397 16.748,1.014 C16.839,0.764 17.033,0.660 17.033,0.660 C17.033,0.660 17.216,0.557 17.468,0.592 L20.759,0.569 C21.753,0.443 21.913,0.900 21.913,0.900 C22.083,1.369 21.547,2.466 20.198,4.260 Z" class="cls-1"/>
</svg>
