<svg xmlns="http://www.w3.org/2000/svg" xmlns:xlink="http://www.w3.org/1999/xlink" preserveAspectRatio="xMidYMid" width="44.593" height="14.35" viewBox="0 0 44.593 14.35">
  <defs>
    <style>
      .cls-1 {
        fill: #0d53a9;
        fill-rule: evenodd;
      }
    </style>
  </defs>
  <path d="M40.945,14.151 L40.850,11.535 L36.574,11.535 L35.381,14.151 L31.505,14.151 L38.607,0.196 L43.408,0.196 L44.582,14.151 L40.945,14.151 ZM40.592,2.439 C40.439,2.986 40.245,3.514 40.010,4.024 L37.939,8.557 L40.735,8.557 L40.573,4.510 L40.554,3.690 C40.554,3.213 40.566,2.795 40.592,2.439 ZM28.795,3.012 C28.387,3.012 28.074,3.101 27.855,3.279 C27.635,3.457 27.525,3.718 27.525,4.062 C27.525,4.374 27.632,4.665 27.845,4.935 C28.058,5.206 28.464,5.567 29.062,6.019 C29.813,6.572 30.370,7.154 30.732,7.765 C31.095,8.376 31.276,9.076 31.276,9.865 C31.276,11.277 30.809,12.377 29.873,13.163 C28.938,13.948 27.634,14.341 25.960,14.341 C25.260,14.341 24.598,14.263 23.975,14.107 C23.351,13.951 22.813,13.724 22.362,13.425 L22.362,10.084 C22.896,10.422 23.509,10.705 24.199,10.934 C24.889,11.163 25.515,11.277 26.075,11.277 C26.545,11.277 26.902,11.179 27.144,10.982 C27.385,10.785 27.506,10.504 27.506,10.142 C27.506,9.970 27.468,9.809 27.392,9.660 C27.315,9.510 27.207,9.361 27.067,9.211 C26.927,9.062 26.552,8.733 25.941,8.224 C25.196,7.625 24.656,7.014 24.318,6.391 C23.981,5.767 23.812,5.083 23.812,4.339 C23.812,3.505 24.021,2.756 24.438,2.091 C24.854,1.426 25.443,0.911 26.203,0.545 C26.964,0.179 27.815,-0.004 28.757,-0.004 C30.277,-0.004 31.645,0.336 32.861,1.017 L31.572,3.852 C30.484,3.292 29.558,3.012 28.795,3.012 ZM15.774,14.151 L18.723,0.196 L22.512,0.196 L19.563,14.151 L15.774,14.151 ZM6.769,14.151 C6.769,14.151 5.378,8.304 4.396,4.179 C3.808,1.921 1.855,0.678 0.007,0.678 C0.007,0.352 0.007,0.213 0.007,0.213 C0.007,0.213 4.062,0.196 6.192,0.196 C7.234,0.196 7.533,0.177 7.968,2.081 C8.458,4.344 9.214,7.841 9.214,7.841 L9.315,9.521 L9.780,9.521 C9.780,9.521 9.933,8.211 10.092,7.880 L13.433,0.196 L17.384,0.196 L10.930,14.151 L6.769,14.151 Z" class="cls-1"/>
</svg>
