<svg xmlns="http://www.w3.org/2000/svg" xmlns:xlink="http://www.w3.org/1999/xlink" preserveAspectRatio="xMidYMid" width="20" height="21.97" viewBox="0 0 20 21.97">
  <defs>
    <style>
      .cls-1 {
        fill: #f77e37;
        fill-rule: evenodd;
      }
    </style>
  </defs>
  <path d="M19.984,10.632 C19.984,10.632 19.984,16.861 19.984,19.582 C19.984,22.305 17.522,21.978 17.522,21.978 C17.522,21.978 5.884,21.947 2.807,21.947 C-0.270,21.947 0.010,19.714 0.010,19.714 L0.010,7.716 C-0.046,6.573 1.017,5.865 1.017,5.865 C1.017,5.865 7.539,2.384 10.896,0.588 C14.253,-1.209 13.918,1.622 13.918,1.622 C13.918,1.622 13.941,9.567 13.941,12.397 C13.941,15.228 12.431,15.555 12.431,15.555 L7.787,17.569 L3.478,19.419 L6.164,19.419 C6.164,19.419 11.871,17.732 13.941,16.915 C16.011,16.099 15.993,14.847 15.993,14.847 L15.993,7.996 C16.222,7.996 16.727,7.996 17.753,7.996 C20.495,7.996 19.984,10.632 19.984,10.632 ZM9.482,9.843 C10.323,9.451 11.004,8.540 11.004,7.808 C11.004,7.076 10.323,6.800 9.482,7.192 C8.642,7.584 7.960,8.495 7.960,9.227 C7.960,9.959 8.642,10.235 9.482,9.843 Z" class="cls-1"/>
</svg>
